<svg id="Layer_1" data-name="Layer 1" xmlns="http://www.w3.org/2000/svg" xmlns:xlink="http://www.w3.org/1999/xlink" viewBox="0 0 2154 811"><defs><style>.cls-1{fill:url(#linear-gradient);}.cls-2{fill:url(#linear-gradient-2);}.cls-3{fill:url(#linear-gradient-3);}.cls-4{fill:url(#linear-gradient-4);}.cls-5{fill:url(#linear-gradient-5);}</style><linearGradient id="linear-gradient" x1="364.48" y1="171.7" x2="372.47" y2="555.2" gradientUnits="userSpaceOnUse"><stop offset="0" stop-color="#01fdfd"/><stop offset="1" stop-color="#0141ec"/></linearGradient><linearGradient id="linear-gradient-2" x1="356.61" y1="-205.92" x2="379.13" y2="875.26" gradientUnits="userSpaceOnUse"><stop offset="0" stop-color="#ffa404"/><stop offset="0.14" stop-color="#ffa404"/><stop offset="0.88" stop-color="#ff2a48"/><stop offset="1" stop-color="#ff2a48"/></linearGradient><linearGradient id="linear-gradient-3" x1="363.44" y1="70.01" x2="371.49" y2="456.42" xlink:href="#linear-gradient-2"/><linearGradient id="linear-gradient-4" x1="367.36" y1="450.37" x2="367.36" y2="741.01" xlink:href="#linear-gradient"/><linearGradient id="linear-gradient-5" x1="367.23" y1="450.37" x2="367.23" y2="741.01" xlink:href="#linear-gradient"/></defs><path class="cls-1" d="M369.59,380.93a4.65,4.65,0,0,1-4.71,0L164.81,276.6a46.61,46.61,0,0,0,3.64,59.4l172.91,90.12a54.75,54.75,0,0,0,51.75,0L566,336a46.61,46.61,0,0,0,3.64-59.4Z"/><path class="cls-2" d="M592.47,184.24,393.3,84.12a57.48,57.48,0,0,0-52.13,0L142,184.24a134.4,134.4,0,0,0,.51,240.35L341,523.38a58.1,58.1,0,0,0,52.39,0L592,424.59a134.37,134.37,0,0,0,.51-240.35Zm22,135.38c-4.91,26.77-23.45,49.14-47.93,61.06l-5.92,2.93L370.74,477.68a7.35,7.35,0,0,1-7,0L173.86,383.61l-5.92-2.93c-24.48-11.92-43-34.29-47.93-61.06a83.92,83.92,0,0,1,45.06-90.7l198.79-99.1.06-.07a7,7,0,0,1,6.63,0l.06.07,198.79,99.1a83.92,83.92,0,0,1,45.06,90.7Z"/><path class="cls-3" d="M230.78,264.17,359.14,331a18.73,18.73,0,0,0,16.19,0l128.36-66.86c10.13-5.36,10.13-18.48,0-23.77l-136.46-69-136.45,69C220.64,245.69,220.64,258.81,230.78,264.17Z"/><path class="cls-4" d="M665.13,489l-49.52,25.56-222.5,115.1a54.75,54.75,0,0,1-51.75,0L118.73,513.12,69.59,487.37a134.69,134.69,0,0,1,17.34-48.44l44.8,23.45L364.88,584.44a4.72,4.72,0,0,0,4.71,0l233.78-121,44.87-23.26A133.24,133.24,0,0,1,665.13,489Z"/><path class="cls-5" d="M665.13,489a133.24,133.24,0,0,0-16.89-48.82L603.37,463.4a84.1,84.1,0,0,1,12.24,51.12c-.26,2.87-.64,5.73-1.15,8.6-4.91,26.77-23.45,49.14-47.93,61.06l-5.92,2.93L370.74,681.19a7.35,7.35,0,0,1-7,0L173.86,587.11l-5.92-2.93c-24.48-11.92-43-34.29-47.93-61.06a92.12,92.12,0,0,1-1.28-10A84.75,84.75,0,0,1,131.1,463.4c.19-.32.44-.7.63-1l-44.8-23.45a134.69,134.69,0,0,0-17.34,48.44A128.73,128.73,0,0,0,68,507.83a134.49,134.49,0,0,0,74.51,120.26L341,726.88a58,58,0,0,0,52.39,0L592,628.09a134.49,134.49,0,0,0,74.51-120.26A132.43,132.43,0,0,0,665.13,489Z"/><path d="M859.06,320.68c43.49,0,62.08,26.88,62.08,57.78,0,29.18-16.88,60.65-62.08,60.65H799c-3.15,0-4.87,1.44-4.87,4.86v69.81H760.36V437.4c0-21.75,9.15-30.61,30.32-30.61H860.2c19.17,0,26.89-13.16,26.89-26.61,0-14-8.29-25.75-26.6-25.75H760.07V320.68Z"/><path d="M1031.27,362.73c40,0,65.51,24.6,65.51,75.53s-25.46,75.52-65.51,75.52H999.52c-40.34,0-65.52-24.6-65.52-75.52s25.18-75.53,65.52-75.53Zm-28.89,29.18c-26.32,0-37.77,13.73-37.77,46.35s11.45,46.05,37.77,46.05h26c26,0,37.76-13.44,37.76-46.05s-11.72-46.35-37.76-46.35Z"/><path d="M1222.93,362.73c35.76,0,50.93,17.16,50.93,46.35,0,27.74-14,43.48-51.21,43.48h-71.81v10.87c0,12,6.58,20.88,23.17,20.88h92.41v29.47H1174c-37.76,0-52.64-21.17-52.64-49.78V412.5c0-28.61,14.88-49.77,52.64-49.77Zm-72.09,66.08h71c16.31,0,22.31-6.86,22.31-18,0-11.44-6.58-18.88-21.45-18.88H1174c-16.59,0-23.17,9.15-23.17,20.88Z"/><path d="M1453.22,320.68v33.75h-99c-17.45,0-25.17,9.44-25.17,22.89,0,11.72,6,22.88,28.61,22.88h45.2c52.64,0,64.94,29.19,64.94,56.93,0,32.62-17.45,56.65-61.51,56.65H1298.73V480h108.72c18.31,0,26.6-10,26.6-24,0-12.58-6.58-24-30.32-24h-44.92c-51.49,0-63.51-28.9-63.51-55.79,0-32,17.17-55.49,60.08-55.49Z"/><path d="M1500.41,362.73V327H1531v35.77h41.77v29.18H1531v71.52c0,16.88,6,22.6,20.31,22.6h20.89v27.75H1545c-31.18,0-44.63-12.58-44.63-52.06V391.91h-20.6V362.73Z"/><path d="M1690.37,362.73c37.76,0,52.64,21.16,52.64,49.77v70.95c0,21.75-5.72,30.33-31.19,30.33h-70.66c-35.76,0-50.64-17.45-50.64-46.06,0-27.46,13.73-43.48,50.93-43.48h71.81V412.79c0-11.73-6.58-20.88-23.18-20.88h-90.4V362.73Zm22.89,113.86V448.27H1642c-16,0-21.74,6.58-21.74,17.74s6,18.3,21.17,18.3H1705C1711,484.31,1713.26,482,1713.26,476.59Z"/><path d="M1913.5,362.73v29.18h-75c-26.32,0-37.77,13.73-37.77,46.35s11.45,46.05,37.77,46.05h75v29.47h-77.81c-40.34,0-65.52-24.6-65.52-75.52s25.18-75.53,65.52-75.53Z"/><path d="M1971.28,297.22V425.38h14c24,0,28.89-1.14,37.76-17.17l25.18-45.48h32.9l-26.32,47.49c-7.44,13.44-14.59,21.74-26.89,26.89,14.3,4,21.74,13.45,30.89,29.18L2086,513.78h-34l-25.18-44.63c-8.87-15.73-14.88-18.31-41.48-18.31h-14v62.94H1941V297.22Z"/></svg>