<svg id="Layer_1" data-name="Layer 1" xmlns="http://www.w3.org/2000/svg" xmlns:xlink="http://www.w3.org/1999/xlink" viewBox="0 0 1000 811"><defs><style>.cls-1{fill:url(#linear-gradient);}.cls-2{fill:url(#linear-gradient-2);}.cls-3{fill:url(#linear-gradient-3);}.cls-4{fill:url(#linear-gradient-4);}.cls-5{fill:url(#linear-gradient-5);}</style><linearGradient id="linear-gradient" x1="497.68" y1="118.97" x2="504.39" y2="441.06" gradientUnits="userSpaceOnUse"><stop offset="0" stop-color="#01fdfd"/><stop offset="1" stop-color="#0141ec"/></linearGradient><linearGradient id="linear-gradient-2" x1="491.07" y1="-198.18" x2="509.99" y2="709.87" gradientUnits="userSpaceOnUse"><stop offset="0" stop-color="#ffa404"/><stop offset="0.14" stop-color="#ffa404"/><stop offset="0.88" stop-color="#ff2a48"/><stop offset="1" stop-color="#ff2a48"/></linearGradient><linearGradient id="linear-gradient-3" x1="496.81" y1="33.56" x2="503.57" y2="358.1" xlink:href="#linear-gradient-2"/><linearGradient id="linear-gradient-4" x1="500.11" y1="353.02" x2="500.11" y2="597.12" xlink:href="#linear-gradient"/><linearGradient id="linear-gradient-5" x1="500" y1="353.02" x2="500" y2="597.12" xlink:href="#linear-gradient"/></defs><path class="cls-1" d="M502,294.7a3.9,3.9,0,0,1-4,0L330,207.07A39.14,39.14,0,0,0,333,257l145.23,75.69a46,46,0,0,0,43.46,0L667,257a39.14,39.14,0,0,0,3-49.89Z"/><path class="cls-2" d="M689.17,129.51,521.89,45.41a48.34,48.34,0,0,0-43.78,0l-167.28,84.1a112.88,112.88,0,0,0,.43,201.86l166.74,83a48.8,48.8,0,0,0,44,0l166.74-83a112.85,112.85,0,0,0,.43-201.86ZM707.64,243.2c-4.12,22.49-19.7,41.28-40.25,51.29l-5,2.46L502.94,376a6.14,6.14,0,0,1-5.88,0L337.59,297l-5-2.46c-20.55-10-36.13-28.8-40.25-51.29A70.46,70.46,0,0,1,330.21,167l167-83.24.06-.05a5.95,5.95,0,0,1,5.56,0l.06.05L669.8,167a70.47,70.47,0,0,1,37.84,76.17Z"/><path class="cls-3" d="M385.39,196.63,493.2,252.79a15.69,15.69,0,0,0,13.6,0l107.81-56.16c8.51-4.49,8.51-15.52,0-20L500,118.75,385.39,176.67C376.88,181.11,376.88,192.14,385.39,196.63Z"/><path class="cls-4" d="M750.2,385.43,708.6,406.9,521.73,503.57a46,46,0,0,1-43.46,0l-187-97.85L250,384.09a112.83,112.83,0,0,1,14.56-40.68l37.63,19.7L498,465.62a4,4,0,0,0,4,0L698.33,364,736,344.43A112.08,112.08,0,0,1,750.2,385.43Z"/><path class="cls-5" d="M750.2,385.43a112.08,112.08,0,0,0-14.19-41L698.33,364A70.63,70.63,0,0,1,708.6,406.9q-.32,3.62-1,7.22c-4.12,22.49-19.7,41.28-40.25,51.29l-5,2.46-159.47,79a6.14,6.14,0,0,1-5.88,0l-159.47-79-5-2.46c-20.55-10-36.13-28.8-40.25-51.29a74.51,74.51,0,0,1-1.07-8.4A71.2,71.2,0,0,1,301.67,364c.16-.27.38-.59.54-.86l-37.63-19.7A112.83,112.83,0,0,0,250,384.09a107.92,107.92,0,0,0-1.34,17.19,113,113,0,0,0,62.58,101l166.74,83a48.8,48.8,0,0,0,44,0l166.74-83a113,113,0,0,0,62.58-101A111,111,0,0,0,750.2,385.43Z"/><path d="M109.53,637.13c30.11,0,43,18.62,43,40,0,20.2-11.69,42-43,42H67.94c-2.18,0-3.37,1-3.37,3.37v48.33H41.2V718c0-15.06,6.34-21.2,21-21.2h48.14c13.27,0,18.61-9.11,18.61-18.42,0-9.71-5.74-17.82-18.41-17.82H41V637.13Z"/><path d="M228.76,666.25c27.73,0,45.36,17,45.36,52.29s-17.63,52.29-45.36,52.29h-22c-27.93,0-45.36-17-45.36-52.29s17.43-52.29,45.36-52.29Zm-20,20.2c-18.22,0-26.15,9.51-26.15,32.09s7.93,31.89,26.15,31.89h18c18,0,26.15-9.31,26.15-31.89s-8.12-32.09-26.15-32.09Z"/><path d="M361.46,666.25c24.76,0,35.26,11.88,35.26,32.09,0,19.21-9.71,30.1-35.46,30.1H311.55V736c0,8.32,4.55,14.46,16,14.46h64v20.4h-64c-26.15,0-36.44-14.66-36.44-34.46V700.71c0-19.81,10.29-34.46,36.44-34.46ZM311.55,712h49.12c11.29,0,15.45-4.75,15.45-12.48,0-7.92-4.56-13.07-14.86-13.07H327.59c-11.49,0-16,6.34-16,14.46Z"/><path d="M520.9,637.13v23.38H452.37c-12.09,0-17.44,6.53-17.44,15.84,0,8.12,4.16,15.84,19.81,15.84H486c36.44,0,45,20.21,45,39.42,0,22.58-12.08,39.22-42.59,39.22H413.94V747.46h75.27c12.67,0,18.42-6.94,18.42-16.64,0-8.71-4.56-16.64-21-16.64h-31.1c-35.65,0-44-20-44-38.62,0-22.18,11.89-38.43,41.6-38.43Z"/><path d="M553.57,666.25V641.49h21.19v24.76h28.92v20.2H574.76V736c0,11.69,4.16,15.65,14.07,15.65h14.46v19.21H584.47c-21.59,0-30.9-8.71-30.9-36.05V686.45H539.31v-20.2Z"/><path d="M685.09,666.25c26.14,0,36.44,14.65,36.44,34.46v49.12c0,15.06-4,21-21.59,21H651c-24.76,0-35.06-12.08-35.06-31.89,0-19,9.51-30.11,35.26-30.11h49.71v-7.92c0-8.12-4.55-14.46-16-14.46H622.3v-20.2Zm15.84,78.83V725.47H651.61c-11.09,0-15.05,4.56-15.05,12.28s4.16,12.68,14.66,12.68h44C699.35,750.43,700.93,748.85,700.93,745.08Z"/><path d="M839.57,666.25v20.2H787.68c-18.22,0-26.15,9.51-26.15,32.09s7.93,31.89,26.15,31.89h51.89v20.4H785.7c-27.93,0-45.36-17-45.36-52.29s17.43-52.29,45.36-52.29Z"/><path d="M879.57,620.89v88.74h9.71c16.64,0,20-.8,26.15-11.89l17.42-31.49h22.78l-18.22,32.88c-5.15,9.31-10.1,15-18.62,18.62,9.91,2.77,15.06,9.31,21.39,20.2L959,770.83H935.43L918,739.93c-6.14-10.89-10.3-12.67-28.72-12.67h-9.71v43.57h-21V620.89Z"/></svg>