<svg id="Layer_1" data-name="Layer 1" xmlns="http://www.w3.org/2000/svg" xmlns:xlink="http://www.w3.org/1999/xlink" viewBox="0 0 1000 811"><defs><style>.cls-1{fill:url(#linear-gradient);}.cls-2{fill:url(#linear-gradient-2);}.cls-3{fill:url(#linear-gradient-3);}.cls-4{fill:url(#linear-gradient-4);}.cls-5{fill:url(#linear-gradient-5);}</style><linearGradient id="linear-gradient" x1="496.93" y1="145.32" x2="505.82" y2="572.09" gradientUnits="userSpaceOnUse"><stop offset="0" stop-color="#01fdfd"/><stop offset="1" stop-color="#0141ec"/></linearGradient><linearGradient id="linear-gradient-2" x1="488.17" y1="-274.91" x2="513.24" y2="928.26" gradientUnits="userSpaceOnUse"><stop offset="0" stop-color="#ffa404"/><stop offset="0.14" stop-color="#ffa404"/><stop offset="0.88" stop-color="#ff2a48"/><stop offset="1" stop-color="#ff2a48"/></linearGradient><linearGradient id="linear-gradient-3" x1="495.77" y1="32.15" x2="504.73" y2="462.16" xlink:href="#linear-gradient-2"/><linearGradient id="linear-gradient-4" x1="500.14" y1="455.43" x2="500.14" y2="778.87" xlink:href="#linear-gradient"/><linearGradient id="linear-gradient-5" x1="500" y1="455.43" x2="500" y2="778.87" xlink:href="#linear-gradient"/></defs><path class="cls-1" d="M502.62,378.16a5.19,5.19,0,0,1-5.24,0L274.74,262.05a51.86,51.86,0,0,0,4,66.1L471.2,428.44a60.9,60.9,0,0,0,57.6,0L721.22,328.15a51.86,51.86,0,0,0,4-66.1Z"/><path class="cls-2" d="M750.65,159.28,529,47.85a64,64,0,0,0-58,0L249.35,159.28a149.56,149.56,0,0,0,.56,267.46L470.85,536.68a64.61,64.61,0,0,0,58.3,0L750.09,426.74a149.53,149.53,0,0,0,.56-267.46Zm24.47,150.65c-5.46,29.79-26.1,54.68-53.33,67.94l-6.6,3.27L503.9,485.82a8.11,8.11,0,0,1-7.8,0L284.81,381.14l-6.6-3.27c-27.23-13.26-47.87-38.15-53.33-67.94A93.37,93.37,0,0,1,275,209L496.24,98.71l.07-.07a7.79,7.79,0,0,1,7.38,0l.07.07L725,209a93.37,93.37,0,0,1,50.14,100.93Z"/><path class="cls-3" d="M348.15,248.22,491,322.62a20.73,20.73,0,0,0,18,0l142.84-74.4c11.28-6,11.28-20.57,0-26.46L500,145,348.15,221.76C336.87,227.65,336.87,242.26,348.15,248.22Z"/><path class="cls-4" d="M831.51,498.38,776.4,526.82,528.8,654.91a60.9,60.9,0,0,1-57.6,0L223.46,525.26l-54.69-28.65a149.87,149.87,0,0,1,19.29-53.91l49.87,26.1L497.38,604.63a5.19,5.19,0,0,0,5.24,0L762.78,469.94l49.94-25.89A148.35,148.35,0,0,1,831.51,498.38Z"/><path class="cls-5" d="M831.51,498.38a148.35,148.35,0,0,0-18.79-54.33l-49.94,25.89a93.53,93.53,0,0,1,13.62,56.88q-.42,4.78-1.28,9.57c-5.46,29.79-26.1,54.69-53.33,68l-6.6,3.27L503.9,712.29a8.11,8.11,0,0,1-7.8,0L284.81,607.61l-6.6-3.27c-27.23-13.26-47.87-38.16-53.33-68a100.24,100.24,0,0,1-1.42-11.13,94.23,94.23,0,0,1,13.76-55.32c.21-.36.49-.78.71-1.14l-49.87-26.1a149.87,149.87,0,0,0-19.29,53.91A143.39,143.39,0,0,0,167,519.37a149.68,149.68,0,0,0,82.91,133.84L470.85,763.15a64.61,64.61,0,0,0,58.3,0L750.09,653.21A149.68,149.68,0,0,0,833,519.37,147.43,147.43,0,0,0,831.51,498.38Z"/></svg>